<?xml version="1.0" encoding="utf-8"?>
<svg version="1.1" xmlns:xlink="http://www.w3.org/1999/xlink" width="14px" height="14px" xmlns="http://www.w3.org/2000/svg">
  <defs>
    <mask fill="white" id="clip1">
      <path d="M 7 0  C 10.86599326133728 0  14 3.1340067386627197  14 7  C 14 10.86599326133728  10.86599326133728 14  7 14  C 3.1340067386627197 14  0 10.86599326133728  0 7  C 0 3.1340067386627197  3.1340067386627197 0  7 0  Z " fill-rule="evenodd" />
    </mask>
  </defs>
  <g transform="matrix(1 0 0 1 -14 -2 )">
    <path d="M 7 0  C 10.86599326133728 0  14 3.1340067386627197  14 7  C 14 10.86599326133728  10.86599326133728 14  7 14  C 3.1340067386627197 14  0 10.86599326133728  0 7  C 0 3.1340067386627197  3.1340067386627197 0  7 0  Z " fill-rule="nonzero" fill="#ffffff" stroke="none" transform="matrix(1 0 0 1 14 2 )" />
    <path d="M 7 0  C 10.86599326133728 0  14 3.1340067386627197  14 7  C 14 10.86599326133728  10.86599326133728 14  7 14  C 3.1340067386627197 14  0 10.86599326133728  0 7  C 0 3.1340067386627197  3.1340067386627197 0  7 0  Z " stroke-width="2" stroke="#000000" fill="none" transform="matrix(1 0 0 1 14 2 )" mask="url(#clip1)" />
  </g>
</svg>