<?xml version="1.0" encoding="utf-8"?>
<svg version="1.1" xmlns:xlink="http://www.w3.org/1999/xlink" width="20px" height="5px" xmlns="http://www.w3.org/2000/svg">
  <g transform="matrix(1 0 0 1 -331 -1489 )">
    <path d="M 5.0568181818181825 0.36458333333333315  C 5.321969696969696 0.6076388888888867  5.454545454545454 0.9027777777777768  5.454545454545454 1.25  L 5.454545454545454 3.75  C 5.454545454545454 4.097222222222221  5.321969696969696 4.39236111111111  5.0568181818181825 4.635416666666667  C 4.791666666666668 4.878472222222221  4.469696969696971 5  4.090909090909091 5  L 1.3636363636363635 5  C 0.984848484848485 5  0.662878787878788 4.878472222222221  0.3977272727272727 4.635416666666667  C 0.13257575757575757 4.39236111111111  0 4.097222222222221  0 3.75  L 0 1.25  C 0 0.9027777777777768  0.13257575757575757 0.6076388888888867  0.3977272727272727 0.36458333333333315  C 0.662878787878788 0.12152777777777679  0.984848484848485 0  1.3636363636363635 0  L 4.090909090909091 0  C 4.469696969696971 0  4.791666666666668 0.12152777777777679  5.0568181818181825 0.36458333333333315  Z M 12.329545454545453 0.36458333333333315  C 12.59469696969697 0.6076388888888867  12.727272727272727 0.9027777777777768  12.727272727272727 1.25  L 12.727272727272727 3.75  C 12.727272727272727 4.097222222222221  12.59469696969697 4.39236111111111  12.329545454545453 4.635416666666667  C 12.064393939393943 4.878472222222221  11.742424242424242 5  11.363636363636365 5  L 8.636363636363637 5  C 8.257575757575758 5  7.935606060606062 4.878472222222221  7.670454545454546 4.635416666666667  C 7.405303030303031 4.39236111111111  7.272727272727273 4.097222222222221  7.272727272727273 3.75  L 7.272727272727273 1.25  C 7.272727272727273 0.9027777777777768  7.405303030303031 0.6076388888888867  7.670454545454546 0.36458333333333315  C 7.935606060606062 0.12152777777777679  8.257575757575758 0  8.636363636363637 0  L 11.363636363636365 0  C 11.742424242424242 0  12.064393939393943 0.12152777777777679  12.329545454545453 0.36458333333333315  Z M 19.602272727272727 0.36458333333333315  C 19.867424242424242 0.6076388888888867  20 0.9027777777777768  20 1.25  L 20 3.75  C 20 4.097222222222221  19.867424242424242 4.39236111111111  19.602272727272727 4.635416666666667  C 19.337121212121215 4.878472222222221  19.015151515151516 5  18.636363636363637 5  L 15.909090909090908 5  C 15.530303030303031 5  15.208333333333336 4.878472222222221  14.943181818181818 4.635416666666667  C 14.678030303030305 4.39236111111111  14.545454545454547 4.097222222222221  14.545454545454547 3.75  L 14.545454545454547 1.25  C 14.545454545454547 0.9027777777777768  14.678030303030305 0.6076388888888867  14.943181818181818 0.36458333333333315  C 15.208333333333336 0.12152777777777679  15.530303030303031 0  15.909090909090908 0  L 18.636363636363637 0  C 19.015151515151516 0  19.337121212121215 0.12152777777777679  19.602272727272727 0.36458333333333315  Z " fill-rule="nonzero" fill="#000000" stroke="none" fill-opacity="0.7490196078431373" transform="matrix(1 0 0 1 331 1489 )" />
  </g>
</svg>