<?xml version="1.0" encoding="utf-8"?>
<svg version="1.1" xmlns:xlink="http://www.w3.org/1999/xlink" width="17px" height="10px" xmlns="http://www.w3.org/2000/svg">
  <g transform="matrix(1 0 0 1 -154 -18 )">
    <path d="M 16.829659318637276 1.030927835051546  C 16.943219772879093 1.145475372279493  17 1.2772050400916368  17 1.426116838487973  C 17 1.5750286368843058  16.943219772879093 1.7067583046964474  16.829659318637276 1.8213058419243988  L 8.891783567134269 9.828178694158074  C 8.778223112892451 9.942726231386022  8.647628590514362 10  8.5 10  C 8.35237140948564 10  8.22177688710755 9.942726231386022  8.108216432865731 9.828178694158074  L 0.17034068136272545 1.8213058419243988  C 0.05678022712090865 1.7067583046964474  0 1.5750286368843058  0 1.426116838487973  C 0 1.2772050400916368  0.05678022712090865 1.145475372279493  0.17034068136272545 1.030927835051546  L 1.0220440881763526 0.1718213058419249  C 1.13560454241817 0.057273768613973486  1.2661990647962593 0  1.4138276553106213 0  C 1.5614562458249837 0  1.692050768203073 0.057273768613973486  1.8056112224448897 0.1718213058419249  L 8.5 6.9243986254295535  L 15.19438877755511 0.1718213058419249  C 15.307949231796927 0.057273768613973486  15.438543754175017 0  15.586172344689379 0  C 15.733800935203742 0  15.864395457581832 0.057273768613973486  15.977955911823647 0.1718213058419249  L 16.829659318637276 1.030927835051546  Z " fill-rule="nonzero" fill="#000000" stroke="none" transform="matrix(1 0 0 1 154 18 )" />
  </g>
</svg>