<?xml version="1.0" encoding="utf-8"?>
<svg version="1.1" xmlns:xlink="http://www.w3.org/1999/xlink" width="18px" height="20px" xmlns="http://www.w3.org/2000/svg">
  <g transform="matrix(1 0 0 1 -187 -2535 )">
    <path d="M 6.4303977272727275 16.549479166666668  C 6.5071022727272725 16.471354166666668  6.545454545454546 16.37152777777778  6.545454545454546 16.25  L 6.545454545454546 7.083333333333332  C 6.545454545454546 6.961805555555555  6.5071022727272725 6.861979166666668  6.4303977272727275 6.783854166666668  C 6.353693181818182 6.705729166666668  6.255681818181819 6.666666666666668  6.136363636363636 6.666666666666668  L 5.318181818181818 6.666666666666668  C 5.198863636363638 6.666666666666668  5.100852272727273 6.705729166666668  5.0241477272727275 6.783854166666668  C 4.947443181818182 6.861979166666668  4.909090909090908 6.961805555555555  4.909090909090908 7.083333333333332  L 4.909090909090908 16.25  C 4.909090909090908 16.37152777777778  4.947443181818182 16.471354166666668  5.0241477272727275 16.549479166666668  C 5.100852272727273 16.627604166666668  5.198863636363638 16.666666666666668  5.318181818181818 16.666666666666668  L 6.136363636363636 16.666666666666668  C 6.255681818181819 16.666666666666668  6.353693181818182 16.627604166666668  6.4303977272727275 16.549479166666668  Z M 9.703125 16.549479166666668  C 9.779829545454545 16.471354166666668  9.818181818181817 16.37152777777778  9.818181818181817 16.25  L 9.818181818181817 7.083333333333332  C 9.818181818181817 6.961805555555555  9.779829545454545 6.861979166666668  9.703125 6.783854166666668  C 9.626420454545455 6.705729166666668  9.528409090909092 6.666666666666668  9.409090909090908 6.666666666666668  L 8.590909090909092 6.666666666666668  C 8.47159090909091 6.666666666666668  8.373579545454545 6.705729166666668  8.296875 6.783854166666668  C 8.220170454545455 6.861979166666668  8.181818181818182 6.961805555555555  8.181818181818182 7.083333333333332  L 8.181818181818182 16.25  C 8.181818181818182 16.37152777777778  8.220170454545455 16.471354166666668  8.296875 16.549479166666668  C 8.373579545454545 16.627604166666668  8.47159090909091 16.666666666666668  8.590909090909092 16.666666666666668  L 9.409090909090908 16.666666666666668  C 9.528409090909092 16.666666666666668  9.626420454545455 16.627604166666668  9.703125 16.549479166666668  Z M 12.975852272727272 16.549479166666668  C 13.052556818181817 16.471354166666668  13.090909090909092 16.37152777777778  13.090909090909092 16.25  L 13.090909090909092 7.083333333333332  C 13.090909090909092 6.961805555555555  13.052556818181817 6.861979166666668  12.975852272727272 6.783854166666668  C 12.899147727272728 6.705729166666668  12.801136363636363 6.666666666666668  12.681818181818183 6.666666666666668  L 11.863636363636363 6.666666666666668  C 11.744318181818182 6.666666666666668  11.646306818181817 6.705729166666668  11.569602272727272 6.783854166666668  C 11.492897727272728 6.861979166666668  11.454545454545455 6.961805555555555  11.454545454545455 7.083333333333332  L 11.454545454545455 16.25  C 11.454545454545455 16.37152777777778  11.492897727272728 16.471354166666668  11.569602272727272 16.549479166666668  C 11.646306818181817 16.627604166666668  11.744318181818182 16.666666666666668  11.863636363636363 16.666666666666668  L 12.681818181818183 16.666666666666668  C 12.801136363636363 16.666666666666668  12.899147727272728 16.627604166666668  12.975852272727272 16.549479166666668  Z M 6.762784090909092 1.8098958333333326  L 6.136363636363636 3.3333333333333326  L 11.863636363636363 3.3333333333333326  L 11.25 1.8098958333333326  C 11.190340909090912 1.7317708333333326  11.117897727272727 1.6840277777777768  11.032670454545455 1.6666666666666674  L 6.980113636363636 1.6666666666666674  C 6.894886363636363 1.6840277777777768  6.8224431818181825 1.7317708333333326  6.762784090909092 1.8098958333333326  Z M 17.884943181818183 3.4505208333333326  C 17.961647727272727 3.5286458333333326  18 3.628472222222221  18 3.75  L 18 4.583333333333332  C 18 4.704861111111109  17.961647727272727 4.8046875  17.884943181818183 4.8828125  C 17.808238636363637 4.9609375  17.710227272727273 5  17.59090909090909 5  L 16.363636363636363 5  L 16.363636363636363 17.34375  C 16.363636363636363 18.06423611111111  16.163352272727273 18.68706597222222  15.762784090909092 19.212239583333332  C 15.36221590909091 19.737413194444443  14.880681818181817 20  14.318181818181817 20  L 3.681818181818182 20  C 3.119318181818182 20  2.6377840909090913 19.74609375  2.237215909090909 19.23828125  C 1.8366477272727275 18.73046875  1.6363636363636365 18.116319444444443  1.6363636363636365 17.395833333333332  L 1.6363636363636365 5  L 0.4090909090909091 5  C 0.2897727272727273 5  0.19176136363636365 4.9609375  0.11505681818181819 4.8828125  C 0.03835227272727272 4.8046875  0 4.704861111111109  0 4.583333333333332  L 0 3.75  C 0 3.628472222222221  0.03835227272727272 3.5286458333333326  0.11505681818181819 3.4505208333333326  C 0.19176136363636365 3.3723958333333326  0.2897727272727273 3.3333333333333326  0.4090909090909091 3.3333333333333326  L 4.359375 3.3333333333333326  L 5.254261363636364 1.1588541666666674  C 5.382102272727273 0.8376736111111094  5.61221590909091 0.5642361111111094  5.9446022727272725 0.3385416666666674  C 6.276988636363637 0.11284722222222099  6.613636363636363 0  6.954545454545454 0  L 11.045454545454545 0  C 11.386363636363638 0  11.723011363636363 0.11284722222222099  12.055397727272728 0.3385416666666674  C 12.387784090909092 0.5642361111111094  12.617897727272728 0.8376736111111094  12.745738636363637 1.1588541666666674  L 13.640625 3.3333333333333326  L 17.59090909090909 3.3333333333333326  C 17.710227272727273 3.3333333333333326  17.808238636363637 3.3723958333333326  17.884943181818183 3.4505208333333326  Z " fill-rule="nonzero" fill="#000000" stroke="none" fill-opacity="0.4980392156862745" transform="matrix(1 0 0 1 187 2535 )" />
  </g>
</svg>