<?xml version="1.0" encoding="utf-8"?>
<svg version="1.1" xmlns:xlink="http://www.w3.org/1999/xlink" width="252px" height="85px" xmlns="http://www.w3.org/2000/svg">
  <g transform="matrix(1 0 0 1 -1044 -368 )">
    <path d="M 1045 373  A 4 4 0 0 1 1049 369 L 1291 369  A 4 4 0 0 1 1295 373 L 1295 448  A 4 4 0 0 1 1291 452 L 1049 452  A 4 4 0 0 1 1045 448 L 1045 373  Z " fill-rule="nonzero" fill="#d9d9d9" stroke="none" />
    <path d="M 1044.5 373  A 4.5 4.5 0 0 1 1049 368.5 L 1291 368.5  A 4.5 4.5 0 0 1 1295.5 373 L 1295.5 448  A 4.5 4.5 0 0 1 1291 452.5 L 1049 452.5  A 4.5 4.5 0 0 1 1044.5 448 L 1044.5 373  Z " stroke-width="1" stroke="#333333" fill="none" stroke-opacity="0.4980392156862745" />
  </g>
</svg>