<?xml version="1.0" encoding="utf-8"?>
<svg version="1.1" xmlns:xlink="http://www.w3.org/1999/xlink" width="10px" height="16px" xmlns="http://www.w3.org/2000/svg">
  <g transform="matrix(1 0 0 1 -299 -16 )">
    <path d="M 10 2.2828784119106693  C 10 2.4549214226633573  9.938867438867439 2.603804797353183  9.816602316602317 2.7295285359801493  L 4.691119691119691 8  L 9.816602316602317 13.27047146401985  C 9.938867438867439 13.396195202646815  10 13.545078577336643  10 13.71712158808933  C 10 13.889164598842017  9.938867438867439 14.038047973531844  9.816602316602317 14.163771712158809  L 8.214285714285714 15.811414392059554  C 8.092020592020592 15.937138130686519  7.947232947232948 16  7.77992277992278 16  C 7.6126126126126135 16  7.467824967824969 15.937138130686519  7.345559845559846 15.811414392059554  L 0.18339768339768342 8.446650124069478  C 0.06113256113256123 8.320926385442514  0 8.172043010752688  0 8  C 0 7.827956989247312  0.06113256113256123 7.679073614557485  0.18339768339768342 7.553349875930522  L 7.345559845559846 0.1885856079404462  C 7.467824967824969 0.06286186931348148  7.6126126126126135 0  7.77992277992278 0  C 7.947232947232948 0  8.092020592020592 0.06286186931348148  8.214285714285714 0.1885856079404462  L 9.816602316602317 1.836228287841191  C 9.938867438867439 1.961952026468154  10 2.1108354011579795  10 2.2828784119106693  Z " fill-rule="nonzero" fill="#000000" stroke="none" transform="matrix(1 0 0 1 299 16 )" />
  </g>
</svg>