<?xml version="1.0" encoding="utf-8"?>
<svg version="1.1" xmlns:xlink="http://www.w3.org/1999/xlink" width="10px" height="16px" xmlns="http://www.w3.org/2000/svg">
  <g transform="matrix(1 0 0 1 -300 -11 )">
    <path d="M 10 8  C 10 8.172043010752688  9.938867438867439 8.320926385442514  9.816602316602317 8.446650124069478  L 2.6544401544401546 15.811414392059554  C 2.5321750321750325 15.937138130686519  2.387387387387388 16  2.2200772200772203 16  C 2.052767052767053 16  1.9079794079794081 15.937138130686519  1.7857142857142858 15.811414392059554  L 0.18339768339768342 14.163771712158809  C 0.06113256113256123 14.038047973531844  0 13.889164598842017  0 13.71712158808933  C 0 13.545078577336643  0.06113256113256123 13.396195202646815  0.18339768339768342 13.27047146401985  L 5.308880308880309 8  L 0.18339768339768342 2.7295285359801493  C 0.06113256113256123 2.603804797353183  0 2.4549214226633573  0 2.2828784119106693  C 0 2.1108354011579795  0.06113256113256123 1.961952026468154  0.18339768339768342 1.836228287841191  L 1.7857142857142858 0.1885856079404462  C 1.9079794079794081 0.06286186931348148  2.052767052767053 0  2.2200772200772203 0  C 2.387387387387388 0  2.5321750321750325 0.06286186931348148  2.6544401544401546 0.1885856079404462  L 9.816602316602317 7.553349875930522  C 9.938867438867439 7.679073614557485  10 7.827956989247312  10 8  Z " fill-rule="nonzero" fill="#333333" stroke="none" transform="matrix(1 0 0 1 300 11 )" />
  </g>
</svg>