<?xml version="1.0" encoding="utf-8"?>
<svg version="1.1" xmlns:xlink="http://www.w3.org/1999/xlink" width="29px" height="23px" xmlns="http://www.w3.org/2000/svg">
  <g transform="matrix(1 0 0 1 -21 -24 )">
    <path d="M 14.5 2.875  C 14.5 2.875  12.455500221252443 0.8481252193450928  12.455500221252443 0.8481252193450928  C 11.90450022816658 0.3018752261996269  11.165000069141389 0  10.39650011062622 0  C 10.39650011062622 0  2.9000000000000004 0  2.9000000000000004 0  C 1.3049999654293059 0  0.014499986171722413 1.2937499657273293  0.014499986171722413 2.875  C 0.014499986171722413 2.875  0 20.125  0 20.125  C 0 21.70625003427267  1.3049999654293059 23  2.9000000000000004 23  C 2.9000000000000004 23  26.1 23  26.1 23  C 27.695000034570697 23  29 21.70625003427267  29 20.125  C 29 20.125  29 5.75  29 5.75  C 29 4.168749965727329  27.695000034570697 2.875  26.1 2.875  C 26.1 2.875  14.5 2.875  14.5 2.875  Z " fill-rule="nonzero" fill="#000000" stroke="none" fill-opacity="0.5019607843137255" transform="matrix(1 0 0 1 21 24 )" />
  </g>
</svg>