<?xml version="1.0" encoding="utf-8"?>
<svg version="1.1" xmlns:xlink="http://www.w3.org/1999/xlink" width="50px" height="37px" xmlns="http://www.w3.org/2000/svg">
  <defs>
    <filter x="451px" y="23px" width="50px" height="37px" filterUnits="userSpaceOnUse" id="filter16">
      <feOffset dx="5" dy="5" in="SourceAlpha" result="shadowOffsetInner" />
      <feGaussianBlur stdDeviation="5.5" in="shadowOffsetInner" result="shadowGaussian" />
      <feComposite in2="shadowGaussian" operator="atop" in="SourceAlpha" result="shadowComposite" />
      <feColorMatrix type="matrix" values="0 0 0 0 0  0 0 0 0 0  0 0 0 0 0  0 0 0 0.19215686274509802 0  " in="shadowComposite" />
    </filter>
    <g id="widget17">
      <path d="M 28 2.5  C 28 1.1249999701976776  26.854545484889634 0  25.45454545454545 0  C 23.60909084840254 0  22.578181413086977 1.8000002205371857  22.998181429776277 3.137500286102295  C 22.998181429776277 3.137500286102295  18.48000058260831 7.5874996185302725  18.48000058260831 7.5874996185302725  C 18.098182385618035 7.474999614059925  17.5381812507456 7.474999614059925  17.156363053755324 7.5874996185302725  C 17.156363053755324 7.5874996185302725  13.91090947931463 4.40000057220459  13.91090947931463 4.40000057220459  C 14.343636756593531 3.0625005066394806  13.312727321277965 1.25  11.454545454545453 1.25  C 9.609090848402543 1.25  8.565454152497379 3.0500005185604095  8.99818142977628 4.40000057220459  C 8.99818142977628 4.40000057220459  3.194545442407781 10.087499618530273  3.194545442407781 10.087499618530273  C 1.832727193832397 9.674999602138996  0 10.687499940395355  0 12.5  C 0 13.875000029802322  1.1454545151103626 15  2.5454545454545454 15  C 4.390909151597456 15  5.421817980029366 13.199999779462814  5.0018179633400655 11.862499713897705  C 5.0018179633400655 11.862499713897705  10.792726690118963 6.162500381469727  10.792726690118963 6.162500381469727  C 11.174544887109235 6.275000385940075  11.734546021981673 6.275000385940075  12.116364218971947 6.162500381469727  C 12.116364218971947 6.162500381469727  15.36181779341264 9.34999942779541  15.36181779341264 9.34999942779541  C 14.92909051613374 10.68749949336052  15.959999951449308 12.5  17.818181818181817 12.5  C 19.66363642432473 12.5  20.707273120229896 10.69999948143959  20.274545842950996 9.34999942779541  C 20.274545842950996 9.34999942779541  24.80545425415039 4.912500381469727  24.80545425415039 4.912500381469727  C 26.167272502725776 5.325000397861004  28 4.312500059604645  28 2.5  Z " fill-rule="nonzero" fill="#000000" stroke="none" transform="matrix(1 0 0 1 457 29 )" />
    </g>
  </defs>
  <g transform="matrix(1 0 0 1 -451 -23 )">
    <use xlink:href="#widget17" filter="url(#filter16)" />
    <use xlink:href="#widget17" />
  </g>
</svg>