<?xml version="1.0" encoding="utf-8"?>
<svg version="1.1" xmlns:xlink="http://www.w3.org/1999/xlink" width="29px" height="29px" xmlns="http://www.w3.org/2000/svg">
  <g transform="matrix(1 0 0 1 -21 -89 )">
    <path d="M 29 3.2222222222222223  C 29 1.4499999615881178  27.55000003841188 0  25.77777777777778 0  C 25.77777777777778 0  3.2222222222222223 0  3.2222222222222223 0  C 1.449999961588118 0  0 1.4499999615881178  0 3.2222222222222223  C 0 3.2222222222222223  0 25.77777777777778  0 25.77777777777778  C 0 27.550000038411884  1.449999961588118 29  3.2222222222222223 29  C 3.2222222222222223 29  25.77777777777778 29  25.77777777777778 29  C 27.55000003841188 29  29 27.550000038411884  29 25.77777777777778  C 29 25.77777777777778  29 3.2222222222222223  29 3.2222222222222223  Z M 9.666666666666666 20.944444444444446  C 9.666666666666666 21.830555574761497  8.941666685872608 22.555555555555557  8.055555555555555 22.555555555555557  C 7.169444425238504 22.555555555555557  6.444444444444445 21.830555574761497  6.444444444444445 20.944444444444446  C 6.444444444444445 20.944444444444446  6.444444444444445 12.88888888888889  6.444444444444445 12.88888888888889  C 6.444444444444445 12.002777758571836  7.169444425238504 11.277777777777779  8.055555555555555 11.277777777777779  C 8.941666685872608 11.277777777777779  9.666666666666666 12.002777758571836  9.666666666666666 12.88888888888889  C 9.666666666666666 12.88888888888889  9.666666666666666 20.944444444444446  9.666666666666666 20.944444444444446  Z M 16.11111111111111 20.944444444444446  C 16.11111111111111 21.830555574761497  15.386111130317051 22.555555555555557  14.5 22.555555555555557  C 13.613888869682947 22.555555555555557  12.88888888888889 21.830555574761497  12.88888888888889 20.944444444444446  C 12.88888888888889 20.944444444444446  12.88888888888889 8.055555555555555  12.88888888888889 8.055555555555555  C 12.88888888888889 7.1694444252385034  13.613888869682947 6.444444444444445  14.5 6.444444444444445  C 15.386111130317051 6.444444444444445  16.11111111111111 7.1694444252385034  16.11111111111111 8.055555555555555  C 16.11111111111111 8.055555555555555  16.11111111111111 20.944444444444446  16.11111111111111 20.944444444444446  Z M 22.55555555555556 20.944444444444446  C 22.55555555555556 21.830555574761497  21.830555574761497 22.555555555555557  20.944444444444443 22.555555555555557  C 20.058333314127392 22.555555555555557  19.333333333333332 21.830555574761497  19.333333333333332 20.944444444444446  C 19.333333333333332 20.944444444444446  19.333333333333332 17.72222222222222  19.333333333333332 17.72222222222222  C 19.333333333333332 16.83611109190517  20.058333314127392 16.11111111111111  20.944444444444443 16.11111111111111  C 21.830555574761497 16.11111111111111  22.55555555555556 16.83611109190517  22.55555555555556 17.72222222222222  C 22.55555555555556 17.72222222222222  22.55555555555556 20.944444444444446  22.55555555555556 20.944444444444446  Z " fill-rule="nonzero" fill="#000000" stroke="none" fill-opacity="0.5019607843137255" transform="matrix(1 0 0 1 21 89 )" />
  </g>
</svg>