<?xml version="1.0" encoding="utf-8"?>
<svg version="1.1" xmlns:xlink="http://www.w3.org/1999/xlink" width="29px" height="30px" xmlns="http://www.w3.org/2000/svg">
  <g transform="matrix(1 0 0 1 -21 -156 )">
    <path d="M 28.724353476420905 18.945000171661377  C 28.724353476420905 18.945000171661377  25.579023862438905 16.469999313354496  25.579023862438905 16.469999313354496  C 25.6386509455449 15.989999324083332  25.68337080528819 15.51000000536442  25.68337080528819 15  C 25.68337080528819 14.48999999463558  25.6386509455449 14.010000675916672  25.579023862438905 13.53000068664551  C 25.579023862438905 13.53000068664551  28.724353476420905 11.054999828338623  28.724353476420905 11.054999828338623  C 29.007582123950993 10.829999819397926  29.082114386840264 10.424999311566355  28.903233137522275 10.094999313354494  C 28.903233137522275 10.094999313354494  25.921878915583985 4.9049999713897705  25.921878915583985 4.9049999713897705  C 25.742997666265993 4.57499997317791  25.34051393069189 4.455000288784505  25.0125649680557 4.575000286102295  C 25.0125649680557 4.575000286102295  21.30077930293144 6.075000286102296  21.30077930293144 6.075000286102296  C 20.525627233659893 5.475000277161598  19.69084866992208 4.980000257492065  18.78153561090659 4.605000257492065  C 18.78153561090659 4.605000257492065  18.215078138143863 0.630000114440918  18.215078138143863 0.630000114440918  C 18.170357825814364 0.27000012248754496  17.85731597270018 0  17.484646694957895 0  C 17.484646694957895 0  11.521937540271077 0  11.521937540271077 0  C 11.14926826252879 0  10.836226409414609 0.27000012248754496  10.79150609708511 0.630000114440918  C 10.79150609708511 0.630000114440918  10.225048624322378 4.605000257492065  10.225048624322378 4.605000257492065  C 9.315735565306891 4.980000257492065  8.48095629075884 5.490000307559967  7.705804221487293 6.075000286102296  C 7.705804221487293 6.075000286102296  3.9940182009579175 4.575000286102295  3.9940182009579175 4.575000286102295  C 3.6511624592154246 4.440000280737878  3.2635869243680995 4.57499997317791  3.0847056750501096 4.9049999713897705  C 3.0847056750501096 4.9049999713897705  0.10335097553619113 10.094999313354494  0.10335097553619113 10.094999313354494  C -0.09043704178169537 10.424999311566355  -0.0009962227605261756 10.829999819397926  0.2822324247695603 11.054999828338623  C 0.2822324247695603 11.054999828338623  3.427561439005423 13.53000068664551  3.427561439005423 13.53000068664551  C 3.3679343558994264 14.010000675916672  3.323213785345897 14.504999980330469  3.323213785345897 15  C 3.323213785345897 15.495000019669531  3.3679343558994264 15.989999324083332  3.427561439005423 16.469999313354496  C 3.427561439005423 16.469999313354496  0.2822324247695603 18.945000171661377  0.2822324247695603 18.945000171661377  C -0.0009962227605261756 19.170000180602074  -0.07553027378179872 19.575000688433647  0.10335097553619113 19.905000686645508  C 0.10335097553619113 19.905000686645508  3.0847056750501096 25.094999313354492  3.0847056750501096 25.094999313354492  C 3.2635869243680995 25.424999311566353  3.666069238321732 25.54500114172697  3.9940182009579175 25.42500114440918  C 3.9940182009579175 25.42500114440918  7.705804221487293 23.92500114440918  7.705804221487293 23.92500114440918  C 8.48095629075884 24.52500115334988  9.315735565306891 25.020000457763672  10.225048624322378 25.395000457763675  C 10.225048624322378 25.395000457763675  10.79150609708511 29.369999885559082  10.79150609708511 29.369999885559082  C 10.836226409414609 29.729999877512455  11.14926826252879 30  11.521937540271077 30  C 11.521937540271077 30  17.484646694957895 30  17.484646694957895 30  C 17.85731597270018 30  18.170357825814364 29.729999877512455  18.215078138143863 29.369999885559082  C 18.215078138143863 29.369999885559082  18.78153561090659 25.395000457763675  18.78153561090659 25.395000457763675  C 19.69084866992208 25.020000457763672  20.525627233659893 24.51000112295151  21.30077930293144 23.92500114440918  C 21.30077930293144 23.92500114440918  25.0125649680557 25.42500114440918  25.0125649680557 25.42500114440918  C 25.355420709798192 25.560001149773598  25.742997666265993 25.424999311566353  25.921878915583985 25.094999313354492  C 25.921878915583985 25.094999313354492  28.903233137522275 19.905000686645508  28.903233137522275 19.905000686645508  C 29.082114386840264 19.575000688433647  29.007582123950993 19.170000180602074  28.724353476420905 18.945000171661377  Z M 19.720662361411616 15  C 19.720662361411616 17.89499992132187  17.38029921900093 20.25  14.503292473019606 20.25  C 11.62628572703828 20.25  9.28592187381736 17.89499992132187  9.28592187381736 15  C 9.28592187381736 12.10500007867813  11.62628572703828 9.75  14.503292473019606 9.75  C 17.38029921900093 9.75  19.720662361411616 12.10500007867813  19.720662361411616 15  Z " fill-rule="nonzero" fill="#000000" stroke="none" fill-opacity="0.5019607843137255" transform="matrix(1 0 0 1 21 156 )" />
  </g>
</svg>